<?xml version="1.0" standalone="no"?>
<!DOCTYPE svg PUBLIC "-//W3C//DTD SVG 20010904//EN"
 "http://www.w3.org/TR/2001/REC-SVG-20010904/DTD/svg10.dtd">
<svg version="1.0" xmlns="http://www.w3.org/2000/svg"
 width="2022.000000pt" height="185.000000pt" viewBox="0 0 2022.000000 185.000000"
 preserveAspectRatio="xMidYMid meet">

<g transform="translate(0.000000,185.000000) scale(0.100000,-0.100000)"
fill="#000000" stroke="none">
<path d="M5275 1799 c-120 -26 -251 -91 -337 -169 -175 -158 -258 -387 -258
-713 0 -293 71 -503 225 -666 150 -158 361 -231 635 -218 143 7 207 19 290 54
162 67 279 178 341 323 21 48 24 70 23 170 0 110 -2 118 -33 179 -40 78 -128
169 -199 205 -55 28 -72 49 -72 93 -1 42 -33 127 -69 183 -35 54 -109 113
-168 134 -99 35 -255 29 -346 -14 -53 -25 -137 -95 -137 -115 0 -11 90 -75
105 -75 3 0 24 14 48 31 61 44 102 59 166 59 71 0 139 -22 178 -58 37 -34 73
-93 73 -119 0 -36 -20 -42 -110 -34 -145 13 -271 -11 -359 -70 -68 -45 -102
-92 -127 -171 -15 -51 -16 -63 -4 -114 26 -108 97 -181 213 -220 38 -13 74
-15 156 -12 90 4 114 9 163 33 101 50 157 123 205 269 11 33 24 61 30 63 12 4
95 -74 112 -105 18 -34 41 -113 41 -142 0 -48 -29 -138 -59 -182 -69 -102
-161 -164 -311 -209 -30 -9 -97 -14 -200 -13 -133 0 -166 3 -230 23 -163 50
-274 144 -347 292 -53 107 -72 170 -85 283 -11 99 -4 327 13 391 5 22 14 57
20 77 19 78 93 201 159 268 76 76 156 119 280 151 74 19 102 21 220 16 145 -7
209 -20 304 -66 120 -56 226 -169 278 -293 17 -43 37 -79 44 -82 14 -5 101 21
120 36 23 17 -58 180 -137 280 -105 131 -264 220 -454 254 -112 20 -290 17
-400 -7z m464 -908 c11 -18 -7 -117 -28 -159 -38 -75 -87 -113 -168 -132 -93
-21 -223 23 -252 86 -14 32 -14 89 0 117 24 44 90 86 154 98 62 12 286 4 294
-10z"/>
<path d="M740 1731 c-202 -30 -397 -133 -506 -268 -21 -27 -43 -51 -50 -55
-21 -14 -107 -193 -126 -263 -11 -41 -21 -122 -25 -195 -4 -106 -2 -138 16
-212 59 -247 216 -444 436 -547 39 -18 78 -37 87 -42 10 -5 27 -9 38 -9 20 0
20 5 18 257 l-3 258 -72 3 c-44 2 -75 8 -82 16 -14 17 -19 232 -5 246 5 5 43
10 84 12 l75 3 8 120 c16 233 94 340 279 384 60 14 246 14 286 0 39 -13 43
-26 41 -130 -3 -109 -14 -129 -69 -122 -22 3 -67 0 -100 -7 -80 -17 -110 -58
-118 -161 -4 -54 -2 -73 9 -80 8 -5 64 -9 125 -9 129 0 144 -8 125 -61 -6 -18
-11 -46 -11 -63 -1 -34 -20 -114 -33 -133 -6 -9 -38 -13 -101 -13 -58 0 -96
-4 -104 -12 -9 -9 -12 -81 -12 -264 0 -260 4 -287 40 -264 8 6 29 10 45 10 37
0 180 63 257 113 199 127 325 335 359 589 10 80 10 110 -5 208 -9 62 -20 118
-25 124 -5 6 -12 26 -16 45 -4 19 -16 48 -26 65 -10 17 -27 49 -39 71 -12 22
-39 58 -59 81 -20 22 -48 54 -63 71 -82 95 -285 204 -418 224 -95 14 -203 18
-260 10z"/>
<path d="M9890 1679 c-96 -4 -195 -12 -220 -17 -138 -27 -252 -136 -292 -279
-21 -74 -22 -98 -23 -458 0 -335 2 -388 18 -445 33 -120 98 -201 204 -257 86
-45 192 -56 552 -57 342 -1 439 10 532 61 106 57 177 163 201 298 16 94 15
716 -1 804 -37 196 -166 318 -359 340 -119 14 -418 19 -612 10z m615 -131
c129 -24 205 -95 235 -218 20 -80 21 -708 1 -804 -26 -127 -91 -191 -225 -223
-86 -20 -713 -19 -807 1 -81 17 -135 50 -174 106 -57 83 -58 86 -62 471 -5
404 3 476 58 552 37 52 101 98 152 109 111 26 695 30 822 6z"/>
<path d="M10499 1409 c-50 -18 -64 -91 -26 -127 31 -29 72 -28 102 3 35 35 33
76 -6 109 -34 29 -33 28 -70 15z"/>
<path d="M10039 1300 c-118 -21 -220 -102 -280 -223 -26 -52 -29 -69 -29 -150
0 -80 3 -97 30 -151 44 -91 107 -157 186 -196 61 -30 75 -33 163 -34 87 0 102
2 162 31 176 82 266 273 213 452 -56 191 -248 307 -445 271z m201 -143 c58
-34 81 -59 111 -122 33 -69 37 -119 13 -193 -21 -64 -61 -112 -121 -147 -41
-24 -57 -28 -128 -27 -93 0 -138 18 -192 74 -79 82 -97 190 -49 295 24 52 38
69 84 99 30 21 69 41 86 45 49 13 157 0 196 -24z"/>
<path d="M13955 1650 c-4 -6 8 -28 27 -48 18 -21 87 -109 153 -197 66 -87 167
-219 225 -294 155 -201 182 -239 178 -255 -2 -12 -219 -257 -354 -401 -133
-141 -220 -240 -222 -251 -3 -11 15 -14 86 -14 l89 0 105 112 c58 62 127 138
154 168 27 30 74 81 104 113 30 32 71 76 91 98 44 49 67 49 99 1 13 -20 38
-53 55 -73 16 -20 62 -77 100 -128 39 -51 105 -138 148 -192 l78 -99 239 0
c156 0 240 4 240 10 0 6 -19 34 -42 63 -24 29 -65 83 -93 120 -27 36 -88 116
-135 176 -131 168 -232 300 -264 345 -16 23 -44 59 -62 80 -19 22 -34 45 -34
51 0 12 12 27 104 125 176 189 218 235 273 296 34 38 87 96 117 129 31 33 56
63 56 68 0 4 -41 7 -92 7 l-91 0 -51 -52 c-28 -29 -73 -78 -100 -108 -27 -30
-95 -104 -151 -165 -55 -60 -112 -122 -125 -137 -13 -16 -31 -28 -40 -28 -10
0 -33 24 -53 53 -55 80 -179 241 -284 372 l-49 60 -236 3 c-158 1 -239 -1
-243 -8z m425 -159 c8 -10 26 -33 40 -51 14 -18 81 -106 150 -194 69 -89 140
-181 158 -206 18 -25 73 -97 122 -160 112 -143 320 -415 340 -444 8 -11 23
-27 32 -34 10 -7 18 -24 18 -36 0 -19 -7 -25 -39 -30 -22 -3 -46 -4 -53 -1 -8
3 -52 56 -99 116 -46 61 -111 146 -144 188 -33 42 -105 135 -160 206 -54 72
-104 135 -110 142 -5 6 -53 68 -105 138 -52 69 -136 178 -187 242 -88 112 -91
118 -75 136 13 15 25 18 57 13 22 -4 47 -15 55 -25z"/>
<path d="M19219 1496 c-2 -2 -107 -10 -234 -16 -285 -15 -324 -29 -373 -130
-61 -129 -57 -734 7 -857 45 -89 90 -109 266 -117 77 -4 205 -11 285 -17 105
-8 207 -7 370 1 124 6 281 14 350 17 151 6 192 21 244 89 20 26 36 52 36 58 0
6 7 56 15 111 27 187 11 663 -24 698 -6 6 -11 18 -11 27 0 21 -47 65 -95 90
-28 14 -60 20 -110 20 -38 0 -160 7 -270 15 -188 14 -447 20 -456 11z m49
-344 c15 -10 34 -22 42 -26 8 -4 24 -12 35 -19 41 -24 181 -105 238 -136 31
-18 57 -35 57 -37 0 -13 -22 -44 -30 -44 -5 0 -91 -48 -191 -106 -99 -58 -187
-103 -195 -100 -11 4 -14 49 -14 246 0 263 0 262 58 222z"/>
</g>
</svg>
